PathFileType	4	(X/Y/Z)	C:/Users/beibeiliu/ov580/test_trc\sequence.33_training_dense_right.trc
DataRate	CameraRate	NumFrames	NumMarkers	Units	OrigDataRate	OrigDataStartFrame	OrigNumFrames
120	120	23	19	mm	120	1	169
Frame#	Time	ThumbCMC			ThumbMCP			ThumbIP			ThumbTip			IndexMCP			IndexPIP			IndexTip			MiddleMCP			MiddlePIP			MiddleTip			RingMCP			RingPIP			RingTip			PinkyMCP			PinkyPIP			PinkyTip			BackHand1			BackHand2			BackHand3	
		X0	Y0	Z0	X1	Y1	Z1	X2	Y2	Z2	X3	Y3	Z3	X4	Y4	Z4	X5	Y5	Z5	X6	Y6	Z6	X7	Y7	Z7	X8	Y8	Z8	X9	Y9	Z9	X10	Y10	Z10	X11	Y11	Z11	X12	Y12	Z12	X13	Y13	Z13	X14	Y14	Z14	X15	Y15	Z15	X16	Y16	Z16	X17	Y17	Z17	X18	Y18	Z18	
0	0	47.2187	69.6416	19.3353	22.523	66.3681	0.974082	10.2106	66.7052	-19.4376	1.43684	64.6465	-38.2888	60.6867	98.3446	-40.9272	54.0272	89.5136	-69.3756	40.455	66.517	-68.9659	81.3088	89.7209	-50.2992	70.0102	78.1801	-76.3642	57.8913	50.3788	-62.0362	92.5608	76.6904	-48.7476	80.8215	62.1674	-68.8958	67.3461	40.4306	-55.035	105.54	63.027	-40.0643	98.3354	52.4273	-61.4553	80.1262	36.853	-60.7171	96.0976	75.7781	-1.57583	95.9652	72.2405	26.0252	73.1485	84.9908	15.2442	
1	0.00833333	46.3675	76.1075	19.8549	26.92	77.4633	8.99882	12.034	84.6135	-12.3413	-1.06985	84.4669	-28.4961	61.11	97.2217	-39.2564	53.9719	93.0179	-68.79	43.0444	65.1405	-68.064	78.2329	90.3728	-47.0382	69.2993	78.4742	-76.7634	55.6561	51.5319	-67.1809	91.3281	79.2499	-47.2791	88.9361	66.5212	-68.7932	67.1484	45.3176	-63.7403	104.857	62.4759	-35.4266	102.283	55.4748	-60.3275	80.8429	42.8039	-63.2315	94.54	73.7881	-0.734843	95.4802	71.1892	26.0251	73.0645	87.3127	13.3377	
2	0.0166667	46.6813	77.0457	27.8911	29.0325	85.2547	10.6369	14.539	95.7763	-6.3982	5.67884	97.9051	-25.0256	61.4514	96.6084	-37.8546	55.4776	97.6524	-65.143	44.3526	70.423	-71.872	79.0515	91.5443	-49.6245	71.5871	82.7516	-76.5133	56.116	53.6894	-73.995	94.0761	77.3339	-42.8245	88.8218	72.9481	-66.5	71.3264	50.6122	-72.0844	105.048	63.1303	-32.5481	107.002	58.333	-55.0416	90.8315	48.0407	-67.9076	94.1322	72.2808	-1.00425	97.7556	70.8158	23.963	74.7039	86.1274	15.2009	
3	0.025	46.8711	78.4564	27.0472	29.7923	88.0496	15.6054	19.2885	99.9543	-6.37549	7.97506	104.567	-23.5156	59.207	96.0443	-34.2806	55.3921	96.469	-66.0089	46.3352	72.3183	-75.7319	82.9968	88.9354	-45.1086	77.9098	84.4008	-76.2464	63.6136	59.2095	-83.7184	94.0577	79.3718	-40.4981	92.4083	75.2433	-68.0253	76.4315	58.2618	-79.4046	104.558	61.7269	-28.4615	110.316	61.9879	-49.3422	98.545	50.744	-72.0813	91.9763	73.541	0.403345	95.5288	68.1929	27.1465	70.8034	86.6153	12.6853	
4	0.0333333	47.7274	79.0799	27.2162	33.3177	88.539	14.7876	23.4492	101.173	-4.96062	14.0431	107.096	-23.7898	61.1108	95.354	-36.5907	56.2505	100.126	-62.6378	48.2283	79.0762	-80.8282	78.7013	88.4748	-40.3341	79.1026	89.0399	-74.474	69.1447	72.1246	-93.2518	92.537	74.5733	-35.034	94.1994	79.7814	-65.2289	85.6583	68.2607	-86.6348	104.865	57.219	-24.8561	113.275	62.9917	-49.7083	109.693	56.949	-71.3658	92.1838	69.5585	3.46103	99.2832	67.1992	27.2788	76.012	81.7384	15.9508	
5	0.0416667	48.4311	77.7817	26.4299	35.9658	87.8821	13.9637	26.6697	98.434	-2.23644	17.8752	107.602	-19.5372	55.421	93.8689	-35.8191	56.3227	97.6817	-63.6584	41.4901	89.2967	-86.8067	79.3685	85.6468	-41.1477	82.2451	91.5089	-69.7769	75.6066	86.0003	-95.5812	91.7189	75.4693	-37.9242	99.171	80.0511	-59.7214	94.2342	81.0253	-82.2221	106.722	56.7276	-27.4122	112.115	62.7425	-43.0572	122.48	64.9269	-66.6515	94.8446	66.1369	-0.354153	95.946	66.8529	24.1158	75.1325	81.4383	11.81	
6	0.05	48.6121	75.3104	27.1716	32.6496	90.0758	17.2848	22.729	103.211	-2.20835	13.0766	110.372	-15.3596	51.563	92.1472	-37.0869	45.7924	100.085	-61.2799	44.2336	98.0799	-85.1326	73.0724	87.3953	-42.8099	75.4287	93.7918	-67.1211	76.924	98.0139	-93.2506	92.3272	73.5792	-39.0122	97.1675	80.0545	-58.2442	99.3659	86.6505	-77.8056	101.224	56.5809	-26.5869	114.243	61.0232	-42.8336	125.469	69.9534	-58.5699	90.4737	68.7407	2.38407	92.7582	67.7466	26	71.1471	81.88	12.7016	
7	0.0583333	45.7128	73.8688	31.781	29.1116	86.617	17.0424	17.8617	97.2813	-0.923046	6.70424	105.994	-15.7723	45.1017	91.6665	-37.0362	42.4723	96.1899	-61.6548	38.4259	103.497	-82.5828	70.193	85.6362	-45.7696	70.3148	93.4148	-66.8551	77.3074	104.107	-90.852	89.4446	73.146	-41.0144	94.6753	80.4735	-58.5846	94.6957	90.9563	-73.7563	99.4743	57.2868	-25.7629	107.79	62.3987	-40.0118	123.099	72.6734	-50.5754	88.1821	72.208	-2.06539	92.997	69.9319	27.2456	67.704	83.7497	16.0851	
8	0.0666667	44.5283	70.7004	25.8016	22.5638	75.9303	15.6823	11.3365	79.9558	-2.58398	-2.87785	83.3745	-17.8101	42.163	86.2528	-38.8007	37.1673	92.3381	-58.1323	36.1973	98.7672	-75.0893	66.6996	83.4494	-44.8361	66.0385	91.8162	-68.2721	68.4265	101.575	-82.584	82.8159	73.1309	-37.8836	86.2508	79.3352	-57.0756	91.3164	91.7014	-75.8082	100.099	59.3359	-28.2318	105.125	64.7924	-44.4029	118.183	71.2677	-51.8991	90.2951	71.8816	-1.68311	94.1094	71.4216	23.0306	67.9794	81.2625	15.7791	
9	0.075	39.7598	65.4008	29.1119	18.0156	58.0061	11.0887	7.64057	54.5818	-8.07828	-3.09877	49.954	-27.0588	40.7053	81.2759	-39.3539	32.1894	84.8564	-55.4337	31.0855	94.011	-77.8133	58.7342	82.3908	-47.9522	59.3493	87.3188	-69.5822	59.7899	97.5671	-84.5907	79.5742	71.9372	-40.3032	78.7302	76.7412	-59.8157	79.9671	86.4062	-78.205	100.07	60.1005	-31.6832	101.077	63.5933	-47.8758	106.792	73.5592	-59.6986	82.7384	72.6555	0.489747	91.0352	74.5429	20.9624	66.3562	82.491	15.1416	
10	0.0833333	40.7127	61.1165	23.4376	18.2532	46.051	5.98929	10.3329	35.9866	-13.3361	7.59451	27.5066	-33.0335	36.2017	76.0191	-36.7913	28.1864	78.3855	-61.0333	29.8877	82.8064	-78.2821	56.7098	74.9106	-50.1856	55.9968	76.9991	-69.5117	53.4931	84.2527	-90.5422	76.9333	68.271	-47.1645	74.6062	69.65	-64.292	72.6382	74.7805	-83.0947	97.7843	56.8181	-35.6771	95.703	57.5458	-52.4245	100.788	65.092	-70.5352	82.0411	73.4057	0.49679	89.3959	77.6813	23.4339	63.1243	79.7434	14.1904	
11	0.0916667	40.9113	58.0909	25.9613	26.6396	42.6909	4.49236	16.8389	31.7304	-20.1696	12.564	21.7051	-38.5921	32.865	70.5292	-41.7382	28.7276	67.6353	-63.5437	24.172	67.858	-84.283	52.2504	67.9814	-49.4123	49.5854	64.5122	-73.7346	43.7167	66.3629	-94.469	73.8727	62.3679	-49.6346	71.4414	58.3299	-67.7464	64.9212	58.3559	-89.2148	90.3642	54.0005	-41.85	91.9841	49.4171	-59.1166	93.9286	48.545	-75.7621	83.4188	72.9809	-7.24932	88.8813	76.5313	19.7459	58.7199	79.9428	9.21841	
12	0.1	39.7637	59.4615	23.106	27.4077	44.2887	0.866922	19.9036	35.4146	-18.8249	14.079	27.9917	-38.1584	32.1434	67.7085	-46.4649	28.6975	58.226	-64.757	20.7494	52.3505	-80.3531	49.9781	61.282	-55.7788	48.173	49.3213	-76.216	42.2123	43.0443	-94.8732	71.3512	56.1148	-52.8876	68.9391	45.6583	-72.44	58.3436	39.8487	-88.4708	91.6583	49.4769	-44.3774	85.9448	41.2237	-59.3525	81.7351	32.6039	-76.3335	83.959	75.106	-7.86448	90.148	75.2703	17.0841	62.2942	82.8053	10.7595	
13	0.108333	45.1945	62.7074	18.0555	28.6039	48.1918	-2.30229	21.9528	43.3543	-23.0839	12.9826	36.2117	-38.4682	38.3588	67.0742	-45.247	31.0011	52.7398	-63.7885	21.4223	36.5532	-80.7886	57.6363	60.0754	-53.3299	49.1401	43.5809	-70.4243	40.5398	23.0625	-88.6028	74.2655	51.0472	-54.295	62.7516	38.539	-65.9262	57.3023	23.2095	-77.5415	93.7684	47.1995	-42.4119	83.2328	31.8452	-58.1662	73.0662	21.4247	-66.6419	86.9456	75.3473	-5.85252	92.7416	76.4228	15.363	64.7324	85.2515	10.1461	
14	0.116667	44.5066	65.0571	18.1137	27.0366	51.9408	-1.08956	21.0912	49.5306	-23.5772	10.1831	46.1266	-43.8748	36.5653	69.7911	-47.4919	31.6177	49.8716	-62.2829	22.6298	31.0088	-69.8173	54.49	62.3821	-52.1181	50.4317	41.8173	-66.6733	39.7997	13.7799	-72.0149	76.4144	52.2457	-51.5965	63.0427	31.0321	-62.5936	50.4934	10.9839	-61.2011	92.5507	47.9703	-41.5402	84.5033	29.6885	-53.1155	64.6985	12.2144	-51.2386	91.646	76.5166	-7.31708	93.1643	78.4833	18.9852	66.5375	85.6878	7.55263	
15	0.125	43.957	68.6985	17.9076	30.2223	57.2922	-3.03897	20.0555	55.9443	-23.3831	11.9901	53.8595	-41.1561	39.1974	75.8479	-46.4853	31.3886	52.7512	-59.9868	25.1437	29.3865	-60.6708	57.3088	65.7811	-53.5084	46.3541	41.1225	-63.3699	40.4519	15.8792	-55.8673	72.9434	57.125	-50.8622	66.9987	33.7383	-57.22	52.9782	13.1031	-42.9975	93.0104	50.0643	-42.2643	80.2666	30.7194	-47.8508	61.8749	18.4209	-34.9241	95.5285	79.761	-5.44428	98.4104	79.1379	17.6329	69.7747	87.24	12.3268	
16	0.133333	48.6192	70.6295	18.2561	28.6334	64.3109	-3.52735	21.774	65.9088	-26.7394	11.4677	63.9215	-44.5193	43.1727	83.6341	-47.5066	33.8958	61.7199	-60.2643	33.7132	33.2449	-52.6744	61.2988	76.0847	-51.6853	50.6757	49.6284	-62.5085	50.08	24.2158	-45.0119	77.9551	65.1202	-47.6927	64.5141	38.0194	-52.3311	54.8729	24.338	-30.2944	96.4176	55.9166	-41.2078	77.0213	35.7954	-44.4331	63.0844	28.7576	-25.1741	96.0562	83.19	-2.96298	100.21	79.2838	22.7954	72.8804	88.5195	14.3445	
17	0.141667	46.2096	75.1255	18.1149	30.0551	71.4059	-4.53655	17.0205	72.7231	-20.9813	10.2064	72.7804	-40.8717	50.2812	91.1793	-48.6933	41.7213	69.8711	-64.1242	38.2702	45.3506	-52.2411	67.3704	80.7149	-55.148	56.4884	54.2021	-64.4951	50.188	36.1932	-41.3032	79.7329	70.5781	-51.3575	69.0117	42.7462	-53.9405	59.3726	35.7233	-32.1948	96.1332	61.1439	-44.6288	80.6404	41.469	-47.98	69.1361	31.6787	-29.2331	98.7272	84.4019	-2.01777	100.318	78.4243	25.7223	71.0234	90.3319	15.4485	
18	0.15	44.4704	75.4464	24.5927	26.8054	77.9834	1.29166	13.9722	80.1151	-15.3213	7.65416	80.6588	-39.6876	50.6714	96.6648	-44.5367	45.4395	80.0054	-66.2849	42.5173	49.8251	-54.0628	68.6083	88.1203	-55.3089	63.4175	65.7591	-70.1264	57.6977	41.9552	-45.5859	89.7378	75.3416	-48.5422	75.3061	55.1154	-62.6588	63.9183	40.3833	-39.2112	103.099	66.3972	-39.6685	87.09	49.1016	-54.701	74.8399	37.6407	-40.7134	94.2921	84.8964	-0.740896	95.1693	76.601	24.9412	73.3068	89.768	15.3101	
19	0.158333	46.1204	77.7479	23.7576	29.8282	83.0393	4.75709	18.3258	86.2247	-10.9587	9.63336	86.7153	-35.3143	55.1335	96.2405	-40.9968	48.6954	85.2196	-67.8154	39.5347	58.3175	-61.9417	79.0588	88.6584	-53.6452	69.4046	70.6256	-73.8463	57.156	45.3074	-56.4746	93.4298	78.2414	-49.7996	80.0898	62.794	-67.2389	66.8277	42.3449	-50.1338	106.14	66.0246	-34.4973	101.162	55.4013	-57.767	77.049	41.5986	-53.2841	94.4832	82.0233	-1.22601	97.5022	75.868	23.571	74.6122	86.8708	17.154	
20	0.166667	51.3718	78.3295	22.4238	32.582	86.8907	11.2504	17.2768	95.5227	-7.7258	15.1366	93.7016	-31.2129	64.151	96.2697	-41.1497	54.2512	93.1506	-67.8917	42.8594	66.4459	-70.075	81.8869	90.4984	-46.7675	79.604	80.5858	-76.097	58.0642	51.3493	-72.8229	97.7543	78.9454	-44.7683	88.8766	68.7879	-69.6896	76.186	46.7895	-69.0815	113.758	60.5844	-31.6977	113.506	54.9263	-54.5877	94.1397	39.9562	-65.916	101.297	74.2905	3.39094	101.431	71.9695	26.8594	73.053	87.819	12.2165	
21	0.175	53.7264	84.5993	23.3698	38.0714	94.5324	7.6296	23.9321	106.629	-7.32523	16.2587	107.655	-25.7587	67.9775	100.645	-42.1104	62.5171	102.87	-65.9004	45.771	77.0407	-80.4532	88.2696	90.2306	-47.4652	83.099	86.8645	-77.889	67.549	62.7804	-89.9918	103.228	74.9986	-43.5314	99.25	71.9524	-67.0764	83.6868	55.0601	-82.3467	113.592	56.0247	-32.6959	114.225	52.3743	-54.2299	103.527	42.58	-72.9112	97.852	73.7019	3.26668	100.823	69.328	25.8628	81.0761	86.1941	14.4525	
22	0.183333	59.553	91.2472	22.534	46.0558	103.441	9.90644	37.2997	119.985	-9.84694	27.8459	127.06	-25.7915	72.2126	104.087	-42.45	68.16	106.492	-68.4836	55.357	95.9393	-89.1319	91.0556	84.7267	-46.0527	92.1184	86.5433	-76.1953	77.055	75.0477	-102.673	100.699	67.1375	-41.4763	100.468	69.3697	-68.6143	90.5976	59.4865	-90.9949	105.351	50.5728	-35.732	110.053	42.3997	-53.3679	104.137	40.5042	-76.9153	99.1134	71.5049	-3.86971	99.6391	67.6376	25.595	83.9662	87.7802	8.96789	
